<?xml version="1.0" encoding="utf-8"?>
<!-- Generator: Adobe Illustrator 19.0.0, SVG Export Plug-In . SVG Version: 6.00 Build 0)  -->
<svg version="1.1" id="Layer_1" xmlns="http://www.w3.org/2000/svg" xmlns:xlink="http://www.w3.org/1999/xlink" x="0px" y="0px"
	 viewBox="20 -20 80 80" enable-background="new 20 -20 80 80" xml:space="preserve">
<g id="XMLID_100_">
	<path id="XMLID_91_" fill="#FFFFFF" d="M96.373,36.238c-0.718,0-1.299-0.581-1.299-1.299V15.677c0-5.398-4.067-9.317-9.672-9.317
		H33.887c-5.36,0-8.961,3.744-8.961,9.317V34.94c0,0.718-0.581,1.299-1.299,1.299c-0.718,0-1.299-0.581-1.299-1.299V15.677
		c0-7.015,4.753-11.915,11.559-11.915h51.515c6.995,0,12.27,5.123,12.27,11.915V34.94C97.672,35.657,97.091,36.238,96.373,36.238z"
		/>
	<path id="XMLID_90_" fill="#FFFFFF" d="M91.177,36.238c-0.718,0-1.299-0.581-1.299-1.299V17.673c0-0.577-1.205-0.921-3.222-0.921
		H32.639c-2.517,0-2.517,0.554-2.517,0.921v17.266c0,0.718-0.581,1.299-1.299,1.299s-1.299-0.581-1.299-1.299V17.673
		c0-3.519,3.85-3.519,5.115-3.519h54.017c4.81,0,5.82,1.914,5.82,3.519v17.266C92.476,35.657,91.895,36.238,91.177,36.238z"/>
	<path id="XMLID_89_" fill="#FFFFFF" d="M49.608,36.238c-0.718,0-1.299-0.581-1.299-1.299V16.752c0-0.718,0.581-1.299,1.299-1.299
		c0.718,0,1.299,0.581,1.299,1.299v18.187C50.907,35.657,50.326,36.238,49.608,36.238z"/>
	<path id="XMLID_88_" fill="#FFFFFF" d="M54.804,36.238c-0.718,0-1.299-0.581-1.299-1.299V16.752c0-0.718,0.581-1.299,1.299-1.299
		s1.299,0.581,1.299,1.299v18.187C56.103,35.657,55.522,36.238,54.804,36.238z"/>
	<path id="XMLID_86_" fill="#FFFFFF" d="M60,36.238c-0.718,0-1.299-0.581-1.299-1.299V16.752c0-0.718,0.581-1.299,1.299-1.299
		s1.299,0.581,1.299,1.299v18.187C61.299,35.657,60.718,36.238,60,36.238z"/>
	<path id="XMLID_85_" fill="#FFFFFF" d="M34.019,36.238c-0.718,0-1.299-0.581-1.299-1.299V16.752c0-0.718,0.581-1.299,1.299-1.299
		s1.299,0.581,1.299,1.299v18.187C35.318,35.657,34.737,36.238,34.019,36.238z"/>
	<path id="XMLID_82_" fill="#FFFFFF" d="M39.215,36.238c-0.718,0-1.299-0.581-1.299-1.299V16.752c0-0.718,0.581-1.299,1.299-1.299
		s1.299,0.581,1.299,1.299v18.187C40.514,35.657,39.933,36.238,39.215,36.238z"/>
	<path id="XMLID_80_" fill="#FFFFFF" d="M44.411,36.238c-0.718,0-1.299-0.581-1.299-1.299V16.752c0-0.718,0.581-1.299,1.299-1.299
		s1.299,0.581,1.299,1.299v18.187C45.71,35.657,45.13,36.238,44.411,36.238z"/>
	<path id="XMLID_79_" fill="#FFFFFF" d="M65.196,36.238c-0.718,0-1.299-0.581-1.299-1.299V16.752c0-0.718,0.581-1.299,1.299-1.299
		s1.299,0.581,1.299,1.299v18.187C66.495,35.657,65.914,36.238,65.196,36.238z"/>
	<path id="XMLID_77_" fill="#FFFFFF" d="M70.392,36.238c-0.718,0-1.299-0.581-1.299-1.299V16.752c0-0.718,0.581-1.299,1.299-1.299
		s1.299,0.581,1.299,1.299v18.187C71.691,35.657,71.11,36.238,70.392,36.238z"/>
	<path id="XMLID_73_" fill="#FFFFFF" d="M75.589,36.238c-0.718,0-1.299-0.581-1.299-1.299V16.752c0-0.718,0.581-1.299,1.299-1.299
		c0.718,0,1.299,0.581,1.299,1.299v18.187C76.888,35.657,76.307,36.238,75.589,36.238z"/>
	<path id="XMLID_72_" fill="#FFFFFF" d="M80.785,36.238c-0.718,0-1.299-0.581-1.299-1.299V16.752c0-0.718,0.581-1.299,1.299-1.299
		c0.718,0,1.299,0.581,1.299,1.299v18.187C82.084,35.657,81.503,36.238,80.785,36.238z"/>
	<path id="XMLID_63_" fill="#FFFFFF" d="M85.981,36.238c-0.718,0-1.299-0.581-1.299-1.299V16.752c0-0.718,0.581-1.299,1.299-1.299
		s1.299,0.581,1.299,1.299v18.187C87.28,35.657,86.699,36.238,85.981,36.238z"/>
</g>
</svg>
