<?xml version="1.0" encoding="utf-8"?>
<!-- Generator: Adobe Illustrator 19.0.0, SVG Export Plug-In . SVG Version: 6.00 Build 0)  -->
<svg version="1.1" id="Layer_1" xmlns="http://www.w3.org/2000/svg" xmlns:xlink="http://www.w3.org/1999/xlink" x="0px" y="0px"
	 viewBox="0 0 80 80" enable-background="new 0 0 80 80" xml:space="preserve">
<g id="XMLID_100_">
	<path id="XMLID_91_" fill="#676767" d="M76.373,56.238c-0.718,0-1.299-0.581-1.299-1.299V35.677c0-5.398-4.067-9.317-9.672-9.317
		H13.887c-5.36,0-8.961,3.744-8.961,9.317v19.263c0,0.718-0.581,1.299-1.299,1.299c-0.718,0-1.299-0.581-1.299-1.299V35.677
		c0-7.015,4.753-11.915,11.559-11.915h51.515c6.995,0,12.27,5.123,12.27,11.915v19.263C77.672,55.657,77.091,56.238,76.373,56.238z"
		/>
	<path id="XMLID_90_" fill="#676767" d="M71.177,56.238c-0.718,0-1.299-0.581-1.299-1.299V37.673c0-0.577-1.205-0.921-3.222-0.921
		H12.639c-2.517,0-2.517,0.554-2.517,0.921v17.266c0,0.718-0.581,1.299-1.299,1.299c-0.718,0-1.299-0.581-1.299-1.299V37.673
		c0-3.519,3.85-3.519,5.115-3.519h54.017c4.81,0,5.82,1.914,5.82,3.519v17.266C72.476,55.657,71.895,56.238,71.177,56.238z"/>
	<path id="XMLID_89_" fill="#676767" d="M29.608,56.238c-0.718,0-1.299-0.581-1.299-1.299V36.752c0-0.718,0.581-1.299,1.299-1.299
		c0.718,0,1.299,0.581,1.299,1.299v18.187C30.907,55.657,30.326,56.238,29.608,56.238z"/>
	<path id="XMLID_88_" fill="#676767" d="M34.804,56.238c-0.718,0-1.299-0.581-1.299-1.299V36.752c0-0.718,0.581-1.299,1.299-1.299
		c0.718,0,1.299,0.581,1.299,1.299v18.187C36.103,55.657,35.522,56.238,34.804,56.238z"/>
	<path id="XMLID_86_" fill="#676767" d="M40,56.238c-0.718,0-1.299-0.581-1.299-1.299V36.752c0-0.718,0.581-1.299,1.299-1.299
		c0.718,0,1.299,0.581,1.299,1.299v18.187C41.299,55.657,40.718,56.238,40,56.238z"/>
	<path id="XMLID_85_" fill="#676767" d="M14.019,56.238c-0.718,0-1.299-0.581-1.299-1.299V36.752c0-0.718,0.581-1.299,1.299-1.299
		c0.718,0,1.299,0.581,1.299,1.299v18.187C15.318,55.657,14.737,56.238,14.019,56.238z"/>
	<path id="XMLID_82_" fill="#676767" d="M19.215,56.238c-0.718,0-1.299-0.581-1.299-1.299V36.752c0-0.718,0.581-1.299,1.299-1.299
		c0.718,0,1.299,0.581,1.299,1.299v18.187C20.514,55.657,19.933,56.238,19.215,56.238z"/>
	<path id="XMLID_80_" fill="#676767" d="M24.411,56.238c-0.718,0-1.299-0.581-1.299-1.299V36.752c0-0.718,0.581-1.299,1.299-1.299
		c0.718,0,1.299,0.581,1.299,1.299v18.187C25.71,55.657,25.13,56.238,24.411,56.238z"/>
	<path id="XMLID_79_" fill="#676767" d="M45.196,56.238c-0.718,0-1.299-0.581-1.299-1.299V36.752c0-0.718,0.581-1.299,1.299-1.299
		c0.718,0,1.299,0.581,1.299,1.299v18.187C46.495,55.657,45.914,56.238,45.196,56.238z"/>
	<path id="XMLID_77_" fill="#676767" d="M50.392,56.238c-0.718,0-1.299-0.581-1.299-1.299V36.752c0-0.718,0.581-1.299,1.299-1.299
		c0.718,0,1.299,0.581,1.299,1.299v18.187C51.691,55.657,51.11,56.238,50.392,56.238z"/>
	<path id="XMLID_73_" fill="#676767" d="M55.589,56.238c-0.718,0-1.299-0.581-1.299-1.299V36.752c0-0.718,0.581-1.299,1.299-1.299
		c0.718,0,1.299,0.581,1.299,1.299v18.187C56.888,55.657,56.307,56.238,55.589,56.238z"/>
	<path id="XMLID_72_" fill="#676767" d="M60.785,56.238c-0.718,0-1.299-0.581-1.299-1.299V36.752c0-0.718,0.581-1.299,1.299-1.299
		c0.718,0,1.299,0.581,1.299,1.299v18.187C62.084,55.657,61.503,56.238,60.785,56.238z"/>
	<path id="XMLID_63_" fill="#676767" d="M65.981,56.238c-0.718,0-1.299-0.581-1.299-1.299V36.752c0-0.718,0.581-1.299,1.299-1.299
		c0.718,0,1.299,0.581,1.299,1.299v18.187C67.28,55.657,66.699,56.238,65.981,56.238z"/>
</g>
</svg>
