<?xml version="1.0" encoding="utf-8"?>
<!-- Generator: Adobe Illustrator 19.0.0, SVG Export Plug-In . SVG Version: 6.00 Build 0)  -->
<svg version="1.1" id="Layer_1" xmlns="http://www.w3.org/2000/svg" xmlns:xlink="http://www.w3.org/1999/xlink" x="0px" y="0px"
	 viewBox="0 0 352 102" enable-background="new 0 0 352 102" xml:space="preserve">
<g id="XMLID_2_">
	<g id="XMLID_42_">
		<path id="XMLID_59_" fill="#FFFFFF" d="M7.787,31.999v5.183c2.151-3.814,6.551-7.432,13.103-7.432
			c9.583,0,17.601,7.921,17.601,17.601v11.93c0,9.289-8.116,17.796-17.405,17.796c-5.965,0-11.147-3.422-13.298-7.431v28.259
			c0,0.88-0.783,1.76-1.761,1.76c-0.977,0-1.662-0.88-1.662-1.76V31.999c0-0.978,0.685-1.663,1.662-1.663
			C7.004,30.336,7.787,31.02,7.787,31.999z M35.068,47.35c0-7.138-6.258-14.178-13.885-14.178c-6.65,0-13.396,5.28-13.396,14.178
			v15.548c0,3.325,5.769,10.756,13.494,10.756c7.432,0,13.787-7.041,13.787-14.375V47.35z"/>
		<path id="XMLID_62_" fill="#FFFFFF" d="M78.479,48.524V74.73c0,0.978-0.685,1.76-1.663,1.76c-0.977,0-1.76-0.782-1.76-1.76v-5.085
			c-3.325,3.814-8.214,7.431-14.667,7.431c-7.627,0-13.592-4.106-13.592-12.907c0-10.365,9.192-12.907,22.784-12.907h5.475v-2.738
			c0-7.334-3.618-15.352-12.907-15.352c-6.063,0-8.996,2.64-10.169,2.64c-1.076,0-1.761-1.271-1.761-1.955
			c0-1.858,6.161-4.107,12.125-4.107C74.372,29.749,78.479,38.843,78.479,48.524z M75.056,54.685h-5.378
			c-10.072,0-19.459,0.977-19.459,9.485c0,6.552,4.401,9.485,10.072,9.485c7.335,0,14.765-6.552,14.765-10.756V54.685z"/>
		<path id="XMLID_65_" fill="#FFFFFF" d="M146.239,31.999c0,0.391-0.294,1.174-0.391,1.369l-15.352,42.536
			c-0.294,0.88-0.783,1.173-1.467,1.173c-0.782,0-0.977-0.293-1.369-1.075l-11.44-36.669l-11.245,36.083
			c-0.391,1.174-0.88,1.662-1.663,1.662c-0.88,0-1.174-0.293-1.662-1.662L86.395,33.368c-0.098-0.195-0.391-0.978-0.391-1.271
			c0-0.978,0.782-1.761,1.76-1.761c0.685,0,1.369,0.392,1.662,1.076l13.788,38.234l11.245-35.398
			c0.294-0.783,0.88-1.271,1.761-1.271c0.88,0,1.466,0.488,1.76,1.271l10.854,35.886l14.081-38.722
			c0.195-0.685,0.88-1.076,1.565-1.076C145.457,30.336,146.239,30.923,146.239,31.999z"/>
		<path id="XMLID_67_" fill="#FFFFFF" d="M184.075,46.862c0-7.725-5.672-13.69-12.615-13.69c-6.551,0-13.298,5.28-13.298,14.178
			v27.38c0,0.88-0.783,1.76-1.76,1.76c-0.978,0-1.663-0.88-1.663-1.76V31.999c0-0.978,0.685-1.663,1.663-1.663
			c0.977,0,1.76,0.685,1.76,1.663v5.183c2.151-3.814,6.552-7.432,13.103-7.432c6.747,0,12.125,4.009,14.668,9.778
			c3.422-6.649,9.192-9.778,14.863-9.778c8.214,0,16.037,6.356,16.037,17.601v27.38c0,0.88-0.782,1.76-1.76,1.76
			c-0.881,0-1.663-0.88-1.663-1.76V47.35c0-9.387-6.649-14.178-12.712-14.178c-6.552,0-13.201,5.475-13.201,13.592v28.064
			c0,1.174-0.88,1.663-1.76,1.663c-0.783,0-1.663-0.489-1.663-1.663V46.862z"/>
		<path id="XMLID_71_" fill="#FFFFFF" d="M288.204,9.41c0-0.978,0.88-1.662,1.662-1.662c0.88,0,1.76,0.684,1.76,1.662v20.925h13.2
			c0.88,0,1.664,0.783,1.664,1.761c0,0.88-0.784,1.662-1.664,1.662h-13.2v29.14c0,7.432,2.836,10.169,10.855,10.169h2.249
			c0.88,0,1.662,0.685,1.662,1.663c0,0.978-0.782,1.76-1.662,1.76h-2.249c-9.291,0-14.276-4.107-14.276-13.592V9.41z"/>
		<path id="XMLID_87_" fill="#FFFFFF" d="M346.969,47.35c0,7.138-3.911,7.335-8.116,7.335h-23.174v4.595
			c0,8.898,6.944,14.375,16.525,14.375c8.215,0,9.682-4.009,11.538-4.009c0.88,0,1.76,0.977,1.76,1.76
			c0,1.857-5.084,5.671-13.493,5.671c-11.54,0-19.753-7.138-19.753-17.796V47.058c0-9.387,7.92-17.308,17.405-17.308
			C338.853,29.749,346.969,37.181,346.969,47.35z M337.68,51.262c4.791,0,5.867-0.586,5.867-3.618
			c0-7.04-5.476-14.472-13.885-14.472c-7.92,0-13.984,6.551-13.984,13.885v4.205H337.68z"/>
	</g>
	<g id="XMLID_37_">
		<circle id="XMLID_122_" fill="none" cx="241.481" cy="52.787" r="1.656"/>
	</g>
	<g id="XMLID_39_">
		<ellipse id="XMLID_120_" fill="none" cx="262.791" cy="52.787" rx="1.649" ry="1.656"/>
	</g>
	<g id="XMLID_70_">
		<path id="XMLID_115_" fill="none" d="M255.602,33.987h-3.466h-3.467c-5.436,1.038-8.482,7.195-11.445,13.18
			c-0.879,1.777-1.742,3.516-2.654,5.066c0.18,16.032,5.772,23.514,17.566,23.514c11.794,0,17.386-7.481,17.567-23.51
			c-0.913-1.55-1.776-3.291-2.657-5.07C264.086,41.182,261.038,35.025,255.602,33.987z M241.481,56.643
			c-2.124,0-3.851-1.73-3.851-3.857c0-2.126,1.727-3.855,3.851-3.855c2.123,0,3.849,1.729,3.849,3.855
			C245.33,54.912,243.604,56.643,241.481,56.643z M262.791,56.643c-2.122,0-3.849-1.73-3.849-3.857c0-2.126,1.727-3.855,3.849-3.855
			c2.124,0,3.851,1.729,3.851,3.855C266.642,54.912,264.915,56.643,262.791,56.643z"/>
	</g>
	<g id="XMLID_74_">
		<path id="XMLID_113_" fill="none" d="M243.584,33.987h-13.318c-3.988,4.316-8.055,13.105-7.296,18.035
			c0.232,1.504,0.871,2.517,1.959,3.099c1.277,0.683,2.394,0.86,3.41,0.533c1.482-0.474,2.783-2.002,4.026-4.024
			c0-0.003,0-0.007,0-0.01c0.105-0.143,0.19-0.298,0.261-0.461c0.071-0.093,0.133-0.192,0.189-0.294
			c0.004-0.006,0.007-0.012,0.011-0.019c0.056-0.105,0.105-0.214,0.147-0.326c0.013-0.027,0.026-0.054,0.038-0.082
			c0.017-0.008,0.035-0.012,0.052-0.019c0.733-1.309,1.455-2.746,2.189-4.229C237.401,41.848,239.873,36.854,243.584,33.987z"/>
	</g>
	<g id="XMLID_75_">
		<path id="XMLID_111_" fill="none" d="M260.688,33.987c3.711,2.866,6.182,7.861,8.332,12.204c0.732,1.48,1.453,2.919,2.184,4.227
			c0.001,0.001,0.003,0.001,0.005,0.002c0.063,0.142,0.139,0.278,0.227,0.405c0.046,0.099,0.096,0.197,0.154,0.289
			c0.067,0.152,0.148,0.296,0.241,0.432c0.043,0.062,0.083,0.127,0.133,0.184c1.225,1.976,2.509,3.458,3.969,3.926
			c1.018,0.325,2.13,0.15,3.41-0.533c1.086-0.582,1.727-1.595,1.96-3.098c0.758-4.929-3.31-13.719-7.298-18.036H260.688z"/>
	</g>
	<g id="XMLID_78_">
		<path id="XMLID_107_" fill="#FFFFFF" d="M241.481,48.93c-2.124,0-3.851,1.729-3.851,3.855c0,2.127,1.727,3.857,3.851,3.857
			c2.123,0,3.849-1.73,3.849-3.857C245.33,50.66,243.604,48.93,241.481,48.93z M241.481,54.443c-0.911,0-1.651-0.743-1.651-1.657
			c0-0.913,0.741-1.655,1.651-1.655c0.91,0,1.649,0.743,1.649,1.655C243.13,53.699,242.39,54.443,241.481,54.443z"/>
	</g>
	<g id="XMLID_81_">
		<path id="XMLID_103_" fill="#FFFFFF" d="M262.791,48.93c-2.122,0-3.849,1.729-3.849,3.855c0,2.127,1.727,3.857,3.849,3.857
			c2.124,0,3.851-1.73,3.851-3.857C266.642,50.66,264.915,48.93,262.791,48.93z M262.791,54.443c-0.909,0-1.649-0.743-1.649-1.657
			c0-0.913,0.741-1.655,1.649-1.655c0.911,0,1.651,0.743,1.651,1.655C264.442,53.699,263.701,54.443,262.791,54.443z"/>
	</g>
	<g id="XMLID_84_">
		<path id="XMLID_97_" fill="#FFFFFF" d="M275.265,32.118c-0.207-0.212-0.49-0.331-0.787-0.331h-17.582h-1.075h-7.37h-1.551h-17.106
			c-0.296,0-0.58,0.119-0.787,0.331c-3.99,4.085-9.172,14-8.212,20.239c0.334,2.172,1.405,3.799,3.096,4.704
			c1.185,0.634,2.333,0.953,3.433,0.953c0.576,0,1.139-0.088,1.686-0.263c1.306-0.418,2.439-1.311,3.47-2.511
			c0.922,15.068,7.519,22.707,19.656,22.707c12.136,0,18.733-7.639,19.657-22.705c1.031,1.2,2.163,2.091,3.468,2.509
			c0.549,0.175,1.112,0.263,1.688,0.263c1.098,0,2.247-0.318,3.433-0.953c1.69-0.905,2.761-2.531,3.095-4.703
			C284.439,46.121,279.255,36.205,275.265,32.118z M233.01,50.438c-0.012,0.028-0.025,0.055-0.038,0.082
			c-0.042,0.112-0.091,0.221-0.147,0.326c-0.003,0.006-0.007,0.013-0.011,0.019c-0.056,0.103-0.118,0.202-0.189,0.294
			c-0.071,0.162-0.156,0.318-0.261,0.461c0,0.003,0,0.007,0,0.01c-1.243,2.023-2.543,3.55-4.026,4.024
			c-1.016,0.326-2.133,0.149-3.41-0.533c-1.087-0.582-1.727-1.595-1.959-3.099c-0.759-4.93,3.308-13.719,7.296-18.035h13.318
			c-3.712,2.866-6.183,7.861-8.333,12.204c-0.734,1.483-1.456,2.92-2.189,4.229C233.046,50.427,233.027,50.431,233.01,50.438z
			 M252.136,75.747c-11.794,0-17.386-7.482-17.566-23.514c0.912-1.549,1.774-3.288,2.654-5.066
			c2.962-5.985,6.009-12.142,11.445-13.18h3.467h3.466c5.436,1.038,8.484,7.195,11.445,13.18c0.88,1.779,1.743,3.52,2.657,5.07
			C269.522,68.266,263.93,75.747,252.136,75.747z M281.303,52.024c-0.233,1.503-0.873,2.516-1.96,3.098
			c-1.28,0.684-2.392,0.859-3.41,0.533c-1.46-0.467-2.743-1.95-3.969-3.926c-0.05-0.057-0.09-0.122-0.133-0.184
			c-0.093-0.136-0.174-0.28-0.241-0.432c-0.058-0.092-0.109-0.19-0.154-0.289c-0.088-0.127-0.164-0.263-0.227-0.405
			c-0.001-0.001-0.003-0.001-0.005-0.002c-0.732-1.309-1.452-2.747-2.184-4.227c-2.149-4.343-4.621-9.337-8.332-12.204h13.316
			C277.993,38.305,282.061,47.095,281.303,52.024z"/>
	</g>
	<g id="XMLID_35_">
		<path id="XMLID_44_" fill="#FFFFFF" d="M252.136,70.886c-0.002,0-0.002,0-0.002,0c-0.729-0.001-1.382-0.378-1.745-1.009
			l-3.838-6.647c-0.365-0.632-0.365-1.385,0-2.017c0.364-0.632,1.018-1.009,1.747-1.009h7.675c0.729,0,1.384,0.377,1.747,1.008
			c0.365,0.632,0.365,1.386,0,2.018l-3.836,6.647C253.518,70.509,252.866,70.886,252.136,70.886z M248.162,62.298L252,68.946
			l1.078,0.465l-0.805-0.465l3.836-6.647l-0.136-0.234h-7.675l-0.942,0.699L248.162,62.298z"/>
	</g>
</g>
</svg>
