<?xml version="1.0" encoding="utf-8"?>
<!-- Generator: Adobe Illustrator 19.0.0, SVG Export Plug-In . SVG Version: 6.00 Build 0)  -->
<svg version="1.1" id="Layer_1" xmlns="http://www.w3.org/2000/svg" xmlns:xlink="http://www.w3.org/1999/xlink" x="0px" y="0px"
	 viewBox="0 0 80 80" enable-background="new 0 0 80 80" xml:space="preserve">
<g id="XMLID_64_">
	<path id="XMLID_76_" fill="#676767" d="M65.274,54.667H14.726c-6.71,0-12.169-5.458-12.169-12.169v-3.12
		c0-6.711,5.459-12.169,12.169-12.169h50.548c6.71,0,12.169,5.458,12.169,12.169v3.12C77.443,49.209,71.984,54.667,65.274,54.667z
		 M14.726,29.705c-5.334,0-9.673,4.339-9.673,9.673v3.12c0,5.334,4.339,9.673,9.673,9.673h50.548c5.334,0,9.673-4.339,9.673-9.673
		v-3.12c0-5.334-4.339-9.673-9.673-9.673H14.726z"/>
	<path id="XMLID_51_" fill="#676767" d="M67.458,37.193H42.496c-0.69,0-1.248-0.558-1.248-1.248c0-0.69,0.558-1.248,1.248-1.248
		h24.962c0.69,0,1.248,0.558,1.248,1.248C68.706,36.635,68.148,37.193,67.458,37.193z"/>
	<path id="XMLID_47_" fill="#676767" d="M38.752,53.419c-0.69,0-1.248-0.558-1.248-1.248V29.705c0-0.69,0.558-1.248,1.248-1.248
		S40,29.015,40,29.705V52.17C40,52.86,39.442,53.419,38.752,53.419z"/>
</g>
</svg>
