<?xml version="1.0" encoding="utf-8"?>
<!-- Generator: Adobe Illustrator 19.0.0, SVG Export Plug-In . SVG Version: 6.00 Build 0)  -->
<svg version="1.1" id="Layer_1" xmlns="http://www.w3.org/2000/svg" xmlns:xlink="http://www.w3.org/1999/xlink" x="0px" y="0px"
	 viewBox="20 -20 80 80" enable-background="new 20 -20 80 80" xml:space="preserve">
<g id="XMLID_64_">
	<path id="XMLID_76_" fill="#FFFFFF" d="M85.274,34.667H34.726c-6.71,0-12.169-5.458-12.169-12.169v-3.12
		c0-6.711,5.459-12.169,12.169-12.169h50.548c6.71,0,12.169,5.458,12.169,12.169v3.12C97.443,29.209,91.984,34.667,85.274,34.667z
		 M34.726,9.705c-5.334,0-9.673,4.339-9.673,9.673v3.12c0,5.334,4.339,9.673,9.673,9.673h50.548c5.334,0,9.673-4.339,9.673-9.673
		v-3.12c0-5.334-4.339-9.673-9.673-9.673C85.274,9.705,34.726,9.705,34.726,9.705z"/>
	<path id="XMLID_51_" fill="#FFFFFF" d="M87.458,17.193H62.496c-0.69,0-1.248-0.558-1.248-1.248c0-0.69,0.558-1.248,1.248-1.248
		h24.962c0.69,0,1.248,0.558,1.248,1.248C88.706,16.635,88.148,17.193,87.458,17.193z"/>
	<path id="XMLID_47_" fill="#FFFFFF" d="M58.752,33.419c-0.69,0-1.248-0.558-1.248-1.248V9.705c0-0.69,0.558-1.248,1.248-1.248
		S60,9.015,60,9.705V32.17C60,32.86,59.442,33.419,58.752,33.419z"/>
</g>
</svg>
