<?xml version="1.0" encoding="utf-8"?>
<!-- Generator: Adobe Illustrator 19.0.0, SVG Export Plug-In . SVG Version: 6.00 Build 0)  -->
<svg version="1.1" id="Layer_1" xmlns="http://www.w3.org/2000/svg" xmlns:xlink="http://www.w3.org/1999/xlink" x="0px" y="0px"
	 viewBox="0 0 80 80" enable-background="new 0 0 80 80" xml:space="preserve">
<g id="XMLID_6_">
	
		<path id="XMLID_4_" fill="none" stroke="#FFFFFF" stroke-width="2" stroke-linecap="round" stroke-linejoin="round" stroke-miterlimit="10" d="
		M56.472,23.506v-6.437c0-19.31-23.582-9.655-23.582-9.655c-5.586,0-10.106,4.318-10.106,9.655v6.437c0,0-3.369,1.44-3.369,3.218
		v6.437c0,1.779,1.878,3.218,3.741,3.218c0,8.895,7.721,19.31,17.031,19.31s16.564-10.416,16.564-19.31
		c1.862,0,3.089-1.44,3.089-3.218v-6.437C59.84,24.945,59.84,23.506,56.472,23.506z"/>
	
		<line id="XMLID_3_" fill="none" stroke="#FFFFFF" stroke-width="2" stroke-linecap="round" stroke-linejoin="round" stroke-miterlimit="10" x1="66.578" y1="58.908" x2="66.578" y2="75"/>
	
		<line id="XMLID_2_" fill="none" stroke="#FFFFFF" stroke-width="2" stroke-linecap="round" stroke-linejoin="round" stroke-miterlimit="10" x1="58.156" y1="66.954" x2="75" y2="66.954"/>
	
		<path id="XMLID_1_" fill="none" stroke="#FFFFFF" stroke-width="2" stroke-linecap="round" stroke-linejoin="round" stroke-miterlimit="10" d="
		M5,75L5,75c0-8.895,7.534-14.483,16.844-14.483h5.053l4.984-7.106"/>
</g>
</svg>
