<?xml version="1.0" encoding="utf-8"?>
<!-- Generator: Adobe Illustrator 19.0.0, SVG Export Plug-In . SVG Version: 6.00 Build 0)  -->
<svg version="1.1" id="Layer_1" xmlns="http://www.w3.org/2000/svg" xmlns:xlink="http://www.w3.org/1999/xlink" x="0px" y="0px"
	 viewBox="0 0 80 80" enable-background="new 0 0 80 80" xml:space="preserve">
<g>
	<g>
		
			<path id="XMLID_8_" fill="none" stroke="#FFFFFF" stroke-width="2" stroke-linecap="round" stroke-linejoin="round" stroke-miterlimit="10" d="
			M75,33.913v-9.13c0-5.885-5.616-10.652-11.501-10.652H38.01c0-3.043-4.28-9.13-9.321-9.13H13.472C8.431,5,5,10.041,5,15.082
			v18.832"/>
		
			<path id="XMLID_7_" fill="none" stroke="#FFFFFF" stroke-width="2" stroke-linecap="round" stroke-linejoin="round" stroke-miterlimit="10" d="
			M75,46.087V32.391c0-5.023-4.956-9.13-9.979-9.13H31.543c-5.023,0-8.282,4.107-8.282,9.13v33.544c0,5.005-4.909,9.065-9.915,9.065
			h-0.128C8.211,75,5,70.94,5,65.935V33.913"/>
		
			<line id="XMLID_6_" fill="none" stroke="#FFFFFF" stroke-width="2" stroke-linecap="round" stroke-linejoin="round" stroke-miterlimit="10" x1="43.043" y1="75" x2="15.652" y2="75"/>
	</g>
	<g>
		
			<polyline id="XMLID_5_" fill="none" stroke="#FFFFFF" stroke-width="2" stroke-linecap="round" stroke-linejoin="round" stroke-miterlimit="10" points="
			50.652,55.217 50.652,71.957 68.913,71.957 68.913,55.217 		"/>
		
			<line id="XMLID_4_" fill="none" stroke="#FFFFFF" stroke-width="2" stroke-linecap="round" stroke-linejoin="round" stroke-miterlimit="10" x1="49.13" y1="53.696" x2="70.435" y2="53.696"/>
		
			<line id="XMLID_3_" fill="none" stroke="#FFFFFF" stroke-width="2" stroke-linecap="round" stroke-linejoin="round" stroke-miterlimit="10" x1="56.739" y1="55.217" x2="56.739" y2="64.348"/>
		
			<line id="XMLID_2_" fill="none" stroke="#FFFFFF" stroke-width="2" stroke-linecap="round" stroke-linejoin="round" stroke-miterlimit="10" x1="62.826" y1="55.217" x2="62.826" y2="64.348"/>
		
			<polyline id="XMLID_1_" fill="none" stroke="#FFFFFF" stroke-width="2" stroke-linecap="round" stroke-linejoin="round" stroke-miterlimit="10" points="
			55.891,52.174 55.891,47.609 61.978,47.609 61.978,52.174 		"/>
	</g>
</g>
</svg>
