<?xml version="1.0" encoding="utf-8"?>
<!-- Generator: Adobe Illustrator 19.0.0, SVG Export Plug-In . SVG Version: 6.00 Build 0)  -->
<svg version="1.1" id="Layer_1" xmlns="http://www.w3.org/2000/svg" xmlns:xlink="http://www.w3.org/1999/xlink" x="0px" y="0px"
	 viewBox="0 0 80 80" enable-background="new 0 0 80 80" xml:space="preserve">
<g id="XMLID_36_">
	
		<path id="XMLID_34_" fill="none" stroke="#FFFFFF" stroke-width="2" stroke-linecap="round" stroke-linejoin="round" stroke-miterlimit="10" d="
		M57.172,22.5v-6.829c0-20.488-23.902-10.244-23.902-10.244c-5.662,0-10.244,4.582-10.244,10.244V22.5c0,0-3.415,1.527-3.415,3.415
		v6.829c0,1.887,1.904,3.415,3.792,3.415c0,9.437,7.826,20.488,17.263,20.488s16.79-11.051,16.79-20.488
		c1.887,0,3.131-1.527,3.131-3.415v-6.829C60.586,24.027,60.586,22.5,57.172,22.5z"/>
	
		<path id="XMLID_5_" fill="none" stroke="#FFFFFF" stroke-width="2" stroke-linecap="round" stroke-linejoin="round" stroke-miterlimit="10" d="
		M5,77.134L5,77.134c0-9.437,7.636-15.366,17.073-15.366h5.122l5.052-7.54"/>
</g>
<g id="XMLID_2_">
	
		<line id="XMLID_1_" fill="none" stroke="#FFFFFF" stroke-width="2" stroke-linecap="round" stroke-linejoin="round" stroke-miterlimit="10" x1="57.518" y1="60.518" x2="74.134" y2="77.134"/>
	
		<line id="XMLID_3_" fill="none" stroke="#FFFFFF" stroke-width="2" stroke-linecap="round" stroke-linejoin="round" stroke-miterlimit="10" x1="74.134" y1="60.518" x2="57.518" y2="77.134"/>
</g>
</svg>
