<?xml version="1.0" encoding="utf-8"?>
<!-- Generator: Adobe Illustrator 19.0.0, SVG Export Plug-In . SVG Version: 6.00 Build 0)  -->
<svg version="1.1" id="Layer_1" xmlns="http://www.w3.org/2000/svg" xmlns:xlink="http://www.w3.org/1999/xlink" x="0px" y="0px"
	 viewBox="0 0 80 80" enable-background="new 0 0 80 80" xml:space="preserve">
<g>
	<g>
		<path id="XMLID_6_" fill="#FFFFFF" d="M18.667,73.333c-0.376,0-0.75-0.159-1.014-0.466c-0.479-0.56-0.413-1.402,0.147-1.88
			c2.105-1.799,4.119-1.913,6.666-1.849C25,69.152,25.575,69,26.203,69h2.998l4.317-7.176c0.372-0.634,1.191-0.764,1.825-0.391
			c0.635,0.374,0.847,1.232,0.473,1.867l-4.702,8.021C30.874,71.729,30.436,72,29.964,72h-3.761c-0.652,0-1.25-0.016-1.805-0.03
			c-2.517-0.064-3.589-0.048-4.864,1.043C19.282,73.228,18.974,73.333,18.667,73.333z"/>
		<path id="XMLID_5_" fill="#FFFFFF" d="M61.333,73.333c-0.331,0-0.663-0.122-0.921-0.369c-1.201-1.147-2.104-1.113-4.279-1.019
			C55.493,71.971,54.78,72,53.971,72h-3.758c-0.465,0-0.897-0.242-1.138-0.639l-4.88-8c-0.383-0.629-0.185-1.449,0.443-1.832
			c0.628-0.388,1.449-0.353,1.833,0.277L50.962,69h3.009c0.768,0,1.444,0.138,2.053,0.113c2.351-0.09,4.211-0.09,6.23,1.839
			c0.533,0.509,0.552,1.394,0.044,1.927C62.036,73.154,61.685,73.333,61.333,73.333z"/>
		<path fill="#FFFFFF" d="M39.984,64.758c-7.761,0-14.424-9.836-14.574-18.021c-3.576-8.411-1.102-15.995-0.54-17.5
			c0.051-4.944,1.672-9.461,12.231-9.566c2.96-1.775,5.833-2.673,8.546-2.673c3.442,0,6.465,1.518,8.293,4.165
			c1.695,2.456,2.14,5.553,1.223,8.372c0.697,2.552,3.324,13.311-0.613,17.504C54.245,55.161,47.65,64.758,39.984,64.758z
			 M45.647,19.664c-2.307,0-4.819,0.832-7.466,2.471c-0.211,0.131-0.454,0.201-0.702,0.201c-9.211,0-9.943,3.1-9.943,7.154
			c0,0.176-0.035,0.35-0.102,0.512c-0.031,0.074-3.082,7.691,0.528,15.919c0.074,0.168,0.113,0.35,0.113,0.535
			c0,6.892,5.607,15.635,11.91,15.635c6.303,0,11.91-8.744,11.91-15.635c0-0.397,0.177-0.773,0.483-1.027
			c2.706-2.241,1.502-10.738,0.107-15.569c-0.08-0.276-0.068-0.573,0.034-0.842c0.799-2.109,0.51-4.479-0.773-6.339
			C50.404,20.734,48.238,19.664,45.647,19.664z"/>
	</g>
	<path fill="#FFFFFF" d="M40.001,80C17.945,80,0,62.056,0,40S17.945,0,40.001,0C62.057,0,80,17.944,80,40S62.057,80,40.001,80z
		 M40.001,2.667C19.415,2.667,2.667,19.414,2.667,40s16.748,37.333,37.335,37.333c20.585,0,37.332-16.747,37.332-37.333
		S60.586,2.667,40.001,2.667z"/>
</g>
</svg>
