<?xml version="1.0" encoding="utf-8"?>
<!-- Generator: Adobe Illustrator 19.0.0, SVG Export Plug-In . SVG Version: 6.00 Build 0)  -->
<svg version="1.1" id="Layer_1" xmlns="http://www.w3.org/2000/svg" xmlns:xlink="http://www.w3.org/1999/xlink" x="0px" y="0px"
	 viewBox="0 0 80 80" enable-background="new 0 0 80 80" xml:space="preserve">
<g id="XMLID_17_">
	<g id="XMLID_35_">
		<polygon id="XMLID_15_" fill="none" stroke="#FFFFFF" stroke-width="2" stroke-linejoin="round" stroke-miterlimit="10" points="
			61.389,68.663 71.155,73.758 66.064,63.988 46.635,44.559 41.957,49.238 		"/>
		<path id="XMLID_14_" fill="none" stroke="#FFFFFF" stroke-width="2" stroke-miterlimit="10" d="M46.635,44.559l-2.865-2.868
			c-1.647-1.644-4.021-1.929-5.314-0.633l0,0c-1.29,1.29-1.008,3.667,0.636,5.311l2.865,2.868"/>
		
			<line id="XMLID_13_" fill="none" stroke="#FFFFFF" stroke-width="2" stroke-linejoin="round" stroke-miterlimit="10" x1="64.171" y1="62.095" x2="59.496" y2="66.773"/>
		
			<line id="XMLID_11_" fill="none" stroke="#FFFFFF" stroke-width="2" stroke-linejoin="round" stroke-miterlimit="10" x1="50.142" y1="48.066" x2="45.464" y2="52.742"/>
	</g>
	<g id="XMLID_18_">
		
			<path id="XMLID_10_" fill="none" stroke="#FFFFFF" stroke-width="2" stroke-linecap="round" stroke-linejoin="round" stroke-miterlimit="10" d="
			M75,33.913v-9.13c0-5.885-5.616-10.652-11.501-10.652H38.01c0-3.043-4.28-9.13-9.321-9.13H13.472C8.431,5,5,10.041,5,15.082
			v18.832"/>
		
			<path id="XMLID_9_" fill="none" stroke="#FFFFFF" stroke-width="2" stroke-linecap="round" stroke-linejoin="round" stroke-miterlimit="10" d="
			M75,55.217V32.391c0-5.023-4.956-9.13-9.979-9.13H31.543c-5.023,0-8.282,4.107-8.282,9.13v33.544c0,5.005-4.909,9.065-9.915,9.065
			h-0.128C8.211,75,5,70.94,5,65.935V33.913"/>
		
			<line id="XMLID_6_" fill="none" stroke="#FFFFFF" stroke-width="2" stroke-linecap="round" stroke-linejoin="round" stroke-miterlimit="10" x1="55.217" y1="75" x2="15.652" y2="75"/>
	</g>
</g>
</svg>
