<?xml version="1.0" encoding="utf-8"?>
<!-- Generator: Adobe Illustrator 19.0.0, SVG Export Plug-In . SVG Version: 6.00 Build 0)  -->
<svg version="1.1" id="Layer_1" xmlns="http://www.w3.org/2000/svg" xmlns:xlink="http://www.w3.org/1999/xlink" x="0px" y="0px"
	 viewBox="0 0 80 80" enable-background="new 0 0 80 80" xml:space="preserve">
<g id="XMLID_16_">
	<g id="XMLID_52_">
		<path id="XMLID_57_" fill="#676767" d="M9.183,76.77c-0.703,0-1.271-0.568-1.271-1.271c0-9.47,13.345-16.673,22.588-17.135
			l2.896-8.685c0.222-0.663,0.934-1.025,1.607-0.804c0.665,0.223,1.025,0.943,0.803,1.608l-3.177,9.532
			c-0.173,0.519-0.658,0.869-1.205,0.869c-8.09,0-20.97,6.69-20.97,14.616C10.454,76.201,9.886,76.77,9.183,76.77z"/>
		<path id="XMLID_56_" fill="#676767" d="M72.729,76.77c-0.703,0-1.271-0.568-1.271-1.271c0-7.926-12.88-14.616-20.97-14.616
			c-0.548,0-1.033-0.35-1.205-0.869l-3.177-9.532c-0.222-0.665,0.138-1.385,0.803-1.608c0.671-0.221,1.386,0.142,1.607,0.804
			l2.896,8.685C60.655,58.825,74,66.029,74,75.499C74,76.201,73.431,76.77,72.729,76.77z"/>
		<path id="XMLID_53_" fill="#676767" d="M40.956,51.351c-18.418,0-24.981-10.267-26.555-13.412
			c-0.194-0.387-0.176-0.849,0.046-1.221c1.513-2.527,5.578-9.673,6.208-12.347C23.664,11.633,31.063,4.328,40.956,4.328
			c9.895,0,17.295,7.305,20.301,20.042c0.634,2.676,4.697,9.822,6.208,12.349c0.222,0.372,0.239,0.834,0.046,1.221
			C65.938,41.085,59.375,51.351,40.956,51.351z M16.995,37.406c1.874,3.331,8.066,11.403,23.961,11.403
			c15.896,0,22.087-8.072,23.961-11.406c-1.272-2.167-5.398-9.341-6.133-12.449C57.5,19.517,53.195,6.869,40.956,6.869
			c-12.235,0-16.543,12.647-17.826,18.086C22.398,28.063,18.268,35.237,16.995,37.406z"/>
	</g>
</g>
</svg>
