<?xml version="1.0" encoding="utf-8"?>
<!-- Generator: Adobe Illustrator 19.0.0, SVG Export Plug-In . SVG Version: 6.00 Build 0)  -->
<svg version="1.1" id="Layer_1" xmlns="http://www.w3.org/2000/svg" xmlns:xlink="http://www.w3.org/1999/xlink" x="0px" y="0px"
	 viewBox="20 -20 80 80" enable-background="new 20 -20 80 80" xml:space="preserve">
<g id="XMLID_128_">
	<path id="XMLID_143_" fill="#FFFFFF" d="M86.23,33.992H33.77c-7.325,0-13.285-5.959-13.285-13.285V17.3
		c0-7.327,5.96-13.285,13.285-13.285h52.46c7.325,0,13.285,5.959,13.285,13.285v3.406C99.515,28.033,93.555,33.992,86.23,33.992z
		 M33.77,6.74c-5.823,0-10.56,4.737-10.56,10.56v3.406c0,5.823,4.737,10.56,10.56,10.56h52.46c5.823,0,10.56-4.737,10.56-10.56V17.3
		c0-5.823-4.737-10.56-10.56-10.56C86.23,6.74,33.77,6.74,33.77,6.74z"/>
	<path id="XMLID_124_" fill="#FFFFFF" d="M43.649,32.629c-0.753,0-1.363-0.609-1.363-1.363V6.74c0-0.753,0.609-1.363,1.363-1.363
		c0.753,0,1.363,0.609,1.363,1.363v24.527C45.012,32.02,44.402,32.629,43.649,32.629z"/>
	<path id="XMLID_123_" fill="#FFFFFF" d="M76.351,32.629c-0.753,0-1.363-0.609-1.363-1.363V6.74c0-0.753,0.609-1.363,1.363-1.363
		s1.363,0.609,1.363,1.363v24.527C77.714,32.02,77.104,32.629,76.351,32.629z"/>
	<circle id="XMLID_121_" fill="#FFFFFF" cx="50.089" cy="25.816" r="1.703"/>
	<circle id="XMLID_119_" fill="#FFFFFF" cx="56.902" cy="25.816" r="1.703"/>
	<circle id="XMLID_118_" fill="#FFFFFF" cx="63.715" cy="25.816" r="1.703"/>
	<circle id="XMLID_117_" fill="#FFFFFF" cx="70.528" cy="25.816" r="1.703"/>
	<circle id="XMLID_116_" fill="#FFFFFF" cx="50.089" cy="19.003" r="1.703"/>
	<circle id="XMLID_114_" fill="#FFFFFF" cx="56.902" cy="19.003" r="1.703"/>
	<circle id="XMLID_112_" fill="#FFFFFF" cx="63.715" cy="19.003" r="1.703"/>
	<circle id="XMLID_110_" fill="#FFFFFF" cx="70.528" cy="19.003" r="1.703"/>
	<circle id="XMLID_109_" fill="#FFFFFF" cx="50.089" cy="12.191" r="1.703"/>
	<circle id="XMLID_108_" fill="#FFFFFF" cx="56.902" cy="12.191" r="1.703"/>
	<circle id="XMLID_106_" fill="#FFFFFF" cx="63.715" cy="12.191" r="1.703"/>
	<circle id="XMLID_102_" fill="#FFFFFF" cx="70.528" cy="12.191" r="1.703"/>
</g>
</svg>
