<?xml version="1.0" encoding="utf-8"?>
<!-- Generator: Adobe Illustrator 19.0.0, SVG Export Plug-In . SVG Version: 6.00 Build 0)  -->
<svg version="1.1" id="Layer_1" xmlns="http://www.w3.org/2000/svg" xmlns:xlink="http://www.w3.org/1999/xlink" x="0px" y="0px"
	 viewBox="0 0 80 80" enable-background="new 0 0 80 80" xml:space="preserve">
<g id="XMLID_128_">
	<path id="XMLID_143_" fill="#676767" d="M66.23,53.992H13.77c-7.325,0-13.285-5.959-13.285-13.285V37.3
		c0-7.327,5.96-13.285,13.285-13.285h52.46c7.325,0,13.285,5.959,13.285,13.285v3.406C79.515,48.033,73.555,53.992,66.23,53.992z
		 M13.77,26.74c-5.823,0-10.56,4.737-10.56,10.56v3.406c0,5.823,4.737,10.56,10.56,10.56h52.46c5.823,0,10.56-4.737,10.56-10.56
		V37.3c0-5.823-4.737-10.56-10.56-10.56H13.77z"/>
	<path id="XMLID_124_" fill="#676767" d="M23.649,52.629c-0.753,0-1.363-0.609-1.363-1.363V26.74c0-0.753,0.609-1.363,1.363-1.363
		c0.753,0,1.363,0.609,1.363,1.363v24.527C25.012,52.02,24.402,52.629,23.649,52.629z"/>
	<path id="XMLID_123_" fill="#676767" d="M56.351,52.629c-0.753,0-1.363-0.609-1.363-1.363V26.74c0-0.753,0.609-1.363,1.363-1.363
		s1.363,0.609,1.363,1.363v24.527C57.714,52.02,57.104,52.629,56.351,52.629z"/>
	<circle id="XMLID_121_" fill="#676767" cx="30.089" cy="45.816" r="1.703"/>
	<circle id="XMLID_119_" fill="#676767" cx="36.902" cy="45.816" r="1.703"/>
	<circle id="XMLID_118_" fill="#676767" cx="43.715" cy="45.816" r="1.703"/>
	<circle id="XMLID_117_" fill="#676767" cx="50.528" cy="45.816" r="1.703"/>
	<circle id="XMLID_116_" fill="#676767" cx="30.089" cy="39.003" r="1.703"/>
	<circle id="XMLID_114_" fill="#676767" cx="36.902" cy="39.003" r="1.703"/>
	<circle id="XMLID_112_" fill="#676767" cx="43.715" cy="39.003" r="1.703"/>
	<circle id="XMLID_110_" fill="#676767" cx="50.528" cy="39.003" r="1.703"/>
	<circle id="XMLID_109_" fill="#676767" cx="30.089" cy="32.191" r="1.703"/>
	<circle id="XMLID_108_" fill="#676767" cx="36.902" cy="32.191" r="1.703"/>
	<circle id="XMLID_106_" fill="#676767" cx="43.715" cy="32.191" r="1.703"/>
	<circle id="XMLID_102_" fill="#676767" cx="50.528" cy="32.191" r="1.703"/>
</g>
</svg>
