<?xml version="1.0" encoding="utf-8"?>
<!-- Generator: Adobe Illustrator 19.0.0, SVG Export Plug-In . SVG Version: 6.00 Build 0)  -->
<svg version="1.1" id="Layer_1" xmlns="http://www.w3.org/2000/svg" xmlns:xlink="http://www.w3.org/1999/xlink" x="0px" y="0px"
	 viewBox="0 0 80 80" enable-background="new 0 0 80 80" xml:space="preserve">
<g id="XMLID_6_">
	<path id="XMLID_4_" fill="none" stroke="#FFFFFF" stroke-linecap="round" stroke-linejoin="round" stroke-miterlimit="10" d="
		M58.354,21.621v-7.172c0-21.517-26.277-10.759-26.277-10.759c-6.225,0-11.261,4.812-11.261,10.759v7.172
		c0,0-3.754,1.604-3.754,3.586v7.172c0,1.982,2.093,3.586,4.168,3.586c0,9.911,8.603,21.517,18.978,21.517
		s18.458-11.606,18.458-21.517c2.075,0,3.442-1.604,3.442-3.586v-7.172C62.108,23.225,62.108,21.621,58.354,21.621z"/>
	
		<line id="XMLID_3_" fill="none" stroke="#FFFFFF" stroke-linecap="round" stroke-linejoin="round" stroke-miterlimit="10" x1="69.615" y1="61.069" x2="69.615" y2="79"/>
	
		<line id="XMLID_2_" fill="none" stroke="#FFFFFF" stroke-linecap="round" stroke-linejoin="round" stroke-miterlimit="10" x1="60.231" y1="70.034" x2="79" y2="70.034"/>
	<path id="XMLID_1_" fill="none" stroke="#FFFFFF" stroke-linecap="round" stroke-linejoin="round" stroke-miterlimit="10" d="M1,79
		L1,79c0-9.911,8.395-16.138,18.769-16.138H25.4l5.554-7.918"/>
</g>
<g id="XMLID_36_">
	<path id="XMLID_34_" fill="none" stroke="#FFFFFF" stroke-linecap="round" stroke-linejoin="round" stroke-miterlimit="10" d="
		M-29.543,9.593V2.42c0-21.517-26.634-10.759-26.634-10.759c-6.309,0-11.415,4.812-11.415,10.759v7.172c0,0-3.805,1.604-3.805,3.586
		v7.172c0,1.982,2.122,3.586,4.225,3.586c0,9.911,8.72,21.517,19.236,21.517s18.709-11.606,18.709-21.517
		c2.103,0,3.489-1.604,3.489-3.586v-7.172C-25.738,11.197-25.738,9.593-29.543,9.593z"/>
	
		<polyline id="XMLID_33_" fill="none" stroke="#FFFFFF" stroke-linecap="round" stroke-linejoin="round" stroke-miterlimit="10" points="
		-32.506,59.799 -24.896,66.972 -9.677,52.627 	"/>
	<path id="XMLID_5_" fill="none" stroke="#FFFFFF" stroke-linecap="round" stroke-linejoin="round" stroke-miterlimit="10" d="
		M-87.677,66.972L-87.677,66.972c0-9.911,8.509-16.138,19.024-16.138h5.707l5.629-7.918"/>
</g>
</svg>
