<?xml version="1.0" encoding="utf-8"?>
<!-- Generator: Adobe Illustrator 19.0.0, SVG Export Plug-In . SVG Version: 6.00 Build 0)  -->
<svg version="1.1" id="Layer_1" xmlns="http://www.w3.org/2000/svg" xmlns:xlink="http://www.w3.org/1999/xlink" x="0px" y="0px"
	 viewBox="0 0 80 80" enable-background="new 0 0 80 80" xml:space="preserve">
<g id="XMLID_6_">
	<path id="XMLID_4_" fill="none" stroke="#010101" stroke-linecap="round" stroke-linejoin="round" stroke-miterlimit="10" d="
		M153.72,25.978v-7.264c0-21.793-26.614-10.897-26.614-10.897c-6.304,0-11.406,4.874-11.406,10.897v7.264
		c0,0-3.802,1.625-3.802,3.632v7.264c0,2.008,2.12,3.632,4.222,3.632c0,10.038,8.714,21.793,19.221,21.793
		s18.694-11.755,18.694-21.793c2.101,0,3.486-1.625,3.486-3.632V29.61C157.522,27.602,157.522,25.978,153.72,25.978z"/>
	
		<line id="XMLID_3_" fill="none" stroke="#010101" stroke-linecap="round" stroke-linejoin="round" stroke-miterlimit="10" x1="165.126" y1="65.932" x2="165.126" y2="84.093"/>
	
		<line id="XMLID_2_" fill="none" stroke="#010101" stroke-linecap="round" stroke-linejoin="round" stroke-miterlimit="10" x1="155.621" y1="75.012" x2="174.631" y2="75.012"/>
	<path id="XMLID_1_" fill="none" stroke="#010101" stroke-linecap="round" stroke-linejoin="round" stroke-miterlimit="10" d="
		M95.631,84.093L95.631,84.093c0-10.038,8.502-16.345,19.01-16.345h5.703l5.625-8.02"/>
</g>
<g id="XMLID_36_">
	<path id="XMLID_34_" fill="none" stroke="#FFFFFF" stroke-linecap="round" stroke-linejoin="round" stroke-miterlimit="10" d="
		M59.634,21.621v-7.172C59.634-7.069,33,3.69,33,3.69c-6.309,0-11.415,4.812-11.415,10.759v7.172c0,0-3.805,1.604-3.805,3.586v7.172
		c0,1.982,2.122,3.586,4.225,3.586c0,9.911,8.72,21.517,19.236,21.517S59.95,45.877,59.95,35.966c2.103,0,3.489-1.604,3.489-3.586
		v-7.172C63.439,23.225,63.439,21.621,59.634,21.621z"/>
	
		<polyline id="XMLID_33_" fill="none" stroke="#FFFFFF" stroke-linecap="round" stroke-linejoin="round" stroke-miterlimit="10" points="
		56.671,71.828 64.28,79 79.5,64.655 	"/>
	<path id="XMLID_5_" fill="none" stroke="#FFFFFF" stroke-linecap="round" stroke-linejoin="round" stroke-miterlimit="10" d="
		M1.5,79L1.5,79c0-9.911,8.509-16.138,19.024-16.138h5.707l5.629-7.918"/>
</g>
</svg>
