<?xml version="1.0" encoding="utf-8"?>
<!-- Generator: Adobe Illustrator 19.0.0, SVG Export Plug-In . SVG Version: 6.00 Build 0)  -->
<svg version="1.1" id="Layer_1" xmlns="http://www.w3.org/2000/svg" xmlns:xlink="http://www.w3.org/1999/xlink" x="0px" y="0px"
	 viewBox="0 0 80 80" enable-background="new 0 0 80 80" xml:space="preserve">
<g id="XMLID_6_">
	<path id="XMLID_4_" fill="none" stroke="#010101" stroke-linecap="round" stroke-linejoin="round" stroke-miterlimit="10" d="
		M59.2,21.885v-7.264c0-21.793-26.614-10.897-26.614-10.897c-6.304,0-11.406,4.874-11.406,10.897v7.264c0,0-3.802,1.625-3.802,3.632
		v7.264c0,2.008,2.12,3.632,4.222,3.632c0,10.038,8.714,21.793,19.221,21.793s18.694-11.755,18.694-21.793
		c2.101,0,3.486-1.625,3.486-3.632v-7.264C63.002,23.51,63.002,21.885,59.2,21.885z"/>
	
		<line id="XMLID_3_" fill="none" stroke="#010101" stroke-linecap="round" stroke-linejoin="round" stroke-miterlimit="10" x1="70.606" y1="61.839" x2="70.606" y2="80"/>
	
		<line id="XMLID_2_" fill="none" stroke="#010101" stroke-linecap="round" stroke-linejoin="round" stroke-miterlimit="10" x1="61.101" y1="70.92" x2="80.111" y2="70.92"/>
	<path id="XMLID_1_" fill="none" stroke="#010101" stroke-linecap="round" stroke-linejoin="round" stroke-miterlimit="10" d="
		M1.111,80L1.111,80c0-10.038,8.502-16.345,19.01-16.345h5.703l5.625-8.02"/>
</g>
</svg>
